<?xml version="1.0" standalone="no"?><svg xmlns="http://www.w3.org/2000/svg" viewBox="0 0 1440 320"><path fill="#2b133a" fill-opacity="1" d="M0,320L0,160L62.6,160L62.6,256L125.2,256L125.2,288L187.8,288L187.8,128L250.4,128L250.4,64L313,64L313,64L375.7,64L375.7,128L438.3,128L438.3,256L500.9,256L500.9,32L563.5,32L563.5,160L626.1,160L626.1,64L688.7,64L688.7,160L751.3,160L751.3,128L813.9,128L813.9,128L876.5,128L876.5,192L939.1,192L939.1,64L1001.7,64L1001.7,128L1064.3,128L1064.3,256L1127,256L1127,96L1189.6,96L1189.6,192L1252.2,192L1252.2,160L1314.8,160L1314.8,96L1377.4,96L1377.4,320L1440,320L1440,0L1377.4,0L1377.4,0L1314.8,0L1314.8,0L1252.2,0L1252.2,0L1189.6,0L1189.6,0L1127,0L1127,0L1064.3,0L1064.3,0L1001.7,0L1001.7,0L939.1,0L939.1,0L876.5,0L876.5,0L813.9,0L813.9,0L751.3,0L751.3,0L688.7,0L688.7,0L626.1,0L626.1,0L563.5,0L563.5,0L500.9,0L500.9,0L438.3,0L438.3,0L375.7,0L375.7,0L313,0L313,0L250.4,0L250.4,0L187.8,0L187.8,0L125.2,0L125.2,0L62.6,0L62.6,0L0,0L0,0Z"></path></svg>