<svg width="56" height="61" viewBox="0 0 56 61" fill="none" xmlns="http://www.w3.org/2000/svg">
<path d="M45.9108 28.8755L34.1832 16.7442C33.7879 16.3343 33.5659 15.7789 33.5659 15.1999C33.5659 14.6209 33.7879 14.0656 34.1832 13.6556L35.9312 11.8428C36.3276 11.4339 36.8646 11.2043 37.4243 11.2043C37.9841 11.2043 38.5211 11.4339 38.9174 11.8428L55.3828 28.8755C55.778 29.2854 56 29.8408 56 30.4198C56 30.9988 55.778 31.5541 55.3828 31.9641L38.922 48.9991C38.5256 49.408 37.9887 49.6376 37.4289 49.6376C36.8691 49.6376 36.3322 49.408 35.9358 48.9991L34.1878 47.1911C33.7925 46.7811 33.5705 46.2258 33.5705 45.6468C33.5705 45.0678 33.7925 44.5124 34.1878 44.1025L45.9143 31.9736C46.1112 31.7702 46.2673 31.5286 46.3737 31.2626C46.4801 30.9967 46.5347 30.7116 46.5344 30.4238C46.5341 30.136 46.4788 29.851 46.3718 29.5853C46.2648 29.3196 46.1082 29.0784 45.9108 28.8755V28.8755Z" fill="white"/>
<path d="M36.6132 31.9404L20.1479 48.9731C19.7515 49.3819 19.2146 49.6115 18.6548 49.6115C18.095 49.6115 17.5581 49.3819 17.1617 48.9731L15.4136 47.165C15.0184 46.755 14.7964 46.1997 14.7964 45.6207C14.7964 45.0417 15.0184 44.4863 15.4136 44.0764L27.1367 31.9404C27.532 31.5304 27.754 30.9751 27.754 30.3961C27.754 29.8171 27.532 29.2617 27.1367 28.8517L15.4136 16.7134C15.0184 16.3034 14.7964 15.748 14.7964 15.1691C14.7964 14.5901 15.0184 14.0347 15.4136 13.6247L17.1617 11.8179C17.5581 11.409 18.095 11.1794 18.6548 11.1794C19.2146 11.1794 19.7515 11.409 20.1479 11.8179L36.6132 28.847C36.8097 29.0501 36.9655 29.2912 37.0718 29.5566C37.1781 29.822 37.2328 30.1064 37.2328 30.3937C37.2328 30.6809 37.1781 30.9654 37.0718 31.2308C36.9655 31.4962 36.8097 31.7373 36.6132 31.9404Z" fill="white"/>
<path d="M10.0951 28.8495C9.70042 29.2598 9.47883 29.815 9.47883 30.3938C9.47883 30.9726 9.70042 31.5278 10.0951 31.9381L13.5626 35.5269C13.7556 35.7256 13.9089 35.9618 14.0134 36.2219C14.1179 36.482 14.1718 36.761 14.1718 37.0427C14.1718 37.3244 14.1179 37.6033 14.0134 37.8635C13.9089 38.1236 13.7556 38.3598 13.5626 38.5585L11.7559 40.4271C11.5638 40.6268 11.3354 40.7853 11.0839 40.8934C10.8324 41.0016 10.5628 41.0572 10.2904 41.0572C10.018 41.0572 9.74834 41.0016 9.49684 40.8934C9.24534 40.7853 9.01697 40.6268 8.82487 40.4271L0.616316 31.9429C0.221591 31.5326 0 30.9774 0 30.3986C0 29.8198 0.221591 29.2645 0.616316 28.8542L8.82716 20.3652C9.01927 20.1655 9.24764 20.007 9.49914 19.8989C9.75064 19.7908 10.0203 19.7351 10.2927 19.7351C10.5651 19.7351 10.8347 19.7908 11.0862 19.8989C11.3377 20.007 11.5661 20.1655 11.7582 20.3652L13.5649 22.2338C13.7579 22.4325 13.9112 22.6687 14.0157 22.9289C14.1202 23.189 14.1741 23.4679 14.1741 23.7497C14.1741 24.0314 14.1202 24.3103 14.0157 24.5704C13.9112 24.8306 13.7579 25.0668 13.5649 25.2655L10.0951 28.8495Z" fill="white"/>
<path d="M28.0638 10.1191C30.5953 10.1191 32.6476 7.99644 32.6476 5.37802C32.6476 2.75961 30.5953 0.636963 28.0638 0.636963C25.5322 0.636963 23.48 2.75961 23.48 5.37802C23.48 7.99644 25.5322 10.1191 28.0638 10.1191Z" fill="white"/>
<path d="M28.0638 60.3037C30.5953 60.3037 32.6476 58.181 32.6476 55.5626C32.6476 52.9442 30.5953 50.8215 28.0638 50.8215C25.5322 50.8215 23.48 52.9442 23.48 55.5626C23.48 58.181 25.5322 60.3037 28.0638 60.3037Z" fill="white"/>
</svg>
